<svg xmlns="http://www.w3.org/2000/svg" viewBox="0 0 420 420" role="img" aria-labelledby="title desc"><title id="title">Music &amp; Beats</title><desc id="desc">Music &amp; Beats monogram combining piano keys and an audio waveform.</desc><defs><linearGradient id="g" x1="0" y1="0" x2="1" y2="1"><stop stop-color="#c084fc"/><stop offset=".5" stop-color="#7c3aed"/><stop offset=".78" stop-color="#3b82f6"/><stop offset="1" stop-color="#22d3ee"/></linearGradient><linearGradient id="w" x1="0" y1="0" x2="0" y2="1"><stop stop-color="#ffffff"/><stop offset="1" stop-color="#c4b5fd"/></linearGradient></defs><rect width="420" height="420" rx="92" fill="#090a0f"/><rect x="15" y="15" width="390" height="390" rx="80" fill="none" stroke="url(#g)" stroke-width="8"/><path d="M82 304V108h42l66 91 66-91h42v196h-46V180l-62 81-62-81v124z" fill="url(#g)"/><rect x="96" y="213" width="30" height="84" rx="8" fill="url(#w)"/><rect x="136" y="213" width="30" height="84" rx="8" fill="url(#w)"/><rect x="176" y="213" width="30" height="84" rx="8" fill="url(#w)"/><rect x="105" y="168" width="21" height="79" rx="7" fill="#111827"/><rect x="145" y="168" width="21" height="79" rx="7" fill="#111827"/><rect x="185" y="168" width="21" height="79" rx="7" fill="#111827"/><g fill="url(#g)"><rect x="262" y="210" width="10" height="38" rx="5"/><rect x="279" y="193" width="10" height="72" rx="5"/><rect x="296" y="176" width="10" height="106" rx="5"/><rect x="313" y="193" width="10" height="72" rx="5"/><rect x="330" y="210" width="10" height="38" rx="5"/></g></svg>